<svg xmlns="http://www.w3.org/2000/svg" width="1256.504150390625" height="262.1728820800781" viewBox="-321.16851806640625 -15.861048698425293 1256.504150390625 262.1728820800781"><title>Neo4j Graph Visualization</title><desc>Created using Neo4j (http://www.neo4j.com/)</desc><g class="layer relationships"><g class="relationship" transform="translate(-70.72940754828565 196.73344062382904) rotate(224.25067764252452)"><path class="outline" fill="#A5ABB6" stroke="none" d="M 25 0.5 L 34.37969342190409 0.5 L 34.37969342190409 -0.5 L 25 -0.5 Z M 81.2898496719041 0.5 L 90.66954309380819 0.5 L 90.66954309380819 3.5 L 97.66954309380819 0 L 90.66954309380819 -3.5 L 90.66954309380819 -0.5 L 81.2898496719041 -0.5 Z"/><text text-anchor="middle" pointer-events="none" font-size="8px" fill="#000000" x="57.83477154690409" y="3" transform="rotate(180 57.83477154690409 0)" font-family="sans-serif">assignment</text></g><g class="relationship" transform="translate(-158.59682728801982 111.13476451768219) rotate(196.58683439711382)"><path class="outline" fill="#A5ABB6" stroke="none" d="M 25 0.5 L 51.623089066306676 0.5 L 51.623089066306676 -0.5 L 25 -0.5 Z M 80.74808906630668 0.5 L 107.37117813261335 0.5 L 107.37117813261335 3.5 L 114.37117813261335 0 L 107.37117813261335 -3.5 L 107.37117813261335 -0.5 L 80.74808906630668 -0.5 Z"/><text text-anchor="middle" pointer-events="none" font-size="8px" fill="#000000" x="66.18558906630668" y="3" transform="rotate(180 66.18558906630668 0)" font-family="sans-serif">assign</text></g><g class="relationship" transform="translate(44.195365343158656 217.31182572655334) rotate(190.15177578086923)"><path class="outline" fill="#A5ABB6" stroke="none" d="M 25 0.5 L 45.42708928156807 0.5 L 45.42708928156807 -0.5 L 25 -0.5 Z M 64.32552678156807 0.5 L 84.75261606313614 0.5 L 84.75261606313614 3.5 L 91.75261606313614 0 L 84.75261606313614 -3.5 L 84.75261606313614 -0.5 L 64.32552678156807 -0.5 Z"/><text text-anchor="middle" pointer-events="none" font-size="8px" fill="#000000" x="54.87630803156807" y="3" transform="rotate(180 54.87630803156807 0)" font-family="sans-serif">use</text></g><g class="relationship" transform="translate(111.30490837233836 117.48303079533548) rotate(483.91082337911917)"><path class="outline" fill="#A5ABB6" stroke="none" d="M 25 0.5 L 42.08207386789865 0.5 L 42.08207386789865 -0.5 L 25 -0.5 Z M 71.20707386789866 0.5 L 88.2891477357973 0.5 L 88.2891477357973 3.5 L 95.2891477357973 0 L 88.2891477357973 -3.5 L 88.2891477357973 -0.5 L 71.20707386789866 -0.5 Z"/><text text-anchor="middle" pointer-events="none" font-size="8px" fill="#000000" x="56.64457386789865" y="3" transform="rotate(180 56.64457386789865 0)" font-family="sans-serif">assign</text></g><g class="relationship" transform="translate(44.195365343158656 217.31182572655334) rotate(249.85917052767724)"><path class="outline" fill="#A5ABB6" stroke="none" d="M 25 0.5 L 43.015277560797415 0.5 L 43.015277560797415 -0.5 L 25 -0.5 Z M 61.913715060797415 0.5 L 79.92899262159483 0.5 L 79.92899262159483 3.5 L 86.92899262159483 0 L 79.92899262159483 -3.5 L 79.92899262159483 -0.5 L 61.913715060797415 -0.5 Z"/><text text-anchor="middle" pointer-events="none" font-size="8px" fill="#000000" x="52.464496310797415" y="3" transform="rotate(180 52.464496310797415 0)" font-family="sans-serif">use</text></g><g class="relationship" transform="translate(174.4374167637618 13.138951459626833) rotate(481.1756828853013)"><path class="outline" fill="#A5ABB6" stroke="none" d="M 25 0.5 L 34.02319773659232 0.5 L 34.02319773659232 -0.5 L 25 -0.5 Z M 80.93335398659232 0.5 L 89.95655172318465 0.5 L 89.95655172318465 3.5 L 96.95655172318465 0 L 89.95655172318465 -3.5 L 89.95655172318465 -0.5 L 80.93335398659232 -0.5 Z"/><text text-anchor="middle" pointer-events="none" font-size="8px" fill="#000000" x="57.47827586159232" y="3" transform="rotate(180 57.47827586159232 0)" font-family="sans-serif">assignment</text></g><g class="relationship" transform="translate(294.5691483801755 27.353401839648082) rotate(186.74808234673804)"><path class="outline" fill="#A5ABB6" stroke="none" d="M 25 0.5 L 47.53566270967579 0.5 L 47.53566270967579 -0.5 L 25 -0.5 Z M 66.43410020967579 0.5 L 88.96976291935158 0.5 L 88.96976291935158 3.5 L 95.96976291935158 0 L 88.96976291935158 -3.5 L 88.96976291935158 -0.5 L 66.43410020967579 -0.5 Z"/><text text-anchor="middle" pointer-events="none" font-size="8px" fill="#000000" x="56.98488145967579" y="3" transform="rotate(180 56.98488145967579 0)" font-family="sans-serif">use</text></g><g class="relationship" transform="translate(426.92281918664116 70.13774526316222) rotate(197.9138259003637)"><path class="outline" fill="#A5ABB6" stroke="none" d="M 25 0.5 L 51.48603380576668 0.5 L 51.48603380576668 -0.5 L 25 -0.5 Z M 80.61103380576668 0.5 L 107.09706761153336 0.5 L 107.09706761153336 3.5 L 114.09706761153336 0 L 107.09706761153336 -3.5 L 107.09706761153336 -0.5 L 80.61103380576668 -0.5 Z"/><text text-anchor="middle" pointer-events="none" font-size="8px" fill="#000000" x="66.04853380576668" y="3" transform="rotate(180 66.04853380576668 0)" font-family="sans-serif">assign</text></g><g class="relationship" transform="translate(294.5691483801755 27.353401839648082) rotate(470.64416462073405)"><path class="outline" fill="#A5ABB6" stroke="none" d="M 25 0.5 L 42.466816743441115 0.5 L 42.466816743441115 -0.5 L 25 -0.5 Z M 61.365254243441115 0.5 L 78.83207098688223 0.5 L 78.83207098688223 3.5 L 85.83207098688223 0 L 78.83207098688223 -3.5 L 78.83207098688223 -0.5 L 61.365254243441115 -0.5 Z"/><text text-anchor="middle" pointer-events="none" font-size="8px" fill="#000000" x="51.916035493441115" y="3" transform="rotate(180 51.916035493441115 0)" font-family="sans-serif">use</text></g><g class="relationship" transform="translate(598.6480566855128 100.61028692454487) rotate(190.06235913503144)"><path class="outline" fill="#A5ABB6" stroke="none" d="M 25 0.5 L 60.24889682647304 0.5 L 60.24889682647304 -0.5 L 25 -0.5 Z M 107.15905307647304 0.5 L 142.4079499029461 0.5 L 142.4079499029461 3.5 L 149.4079499029461 0 L 142.4079499029461 -3.5 L 142.4079499029461 -0.5 L 107.15905307647304 -0.5 Z"/><text text-anchor="middle" pointer-events="none" font-size="8px" fill="#000000" x="83.70397495147304" y="3" transform="rotate(180 83.70397495147304 0)" font-family="sans-serif">assignment</text></g><g class="relationship" transform="translate(906.3356840891199 128.77157461596443) rotate(185.22945949295644)"><path class="outline" fill="#A5ABB6" stroke="none" d="M 24.018736134675446,-6.953439040707552 L 24.277555179777966,-5.987513214418485 A 500.5953023760871 500.5953023760871 0 0 1 126.21061418245468,-22.2817640352352 L 126.15541882003325,-23.280239609281523 A 501.5953023760871 501.5953023760871 0 0 0 24.018736134675446,-6.953439040707552 Z M 175.77757866233452,-23.564978630133737 L 175.7338453473795,-22.565935389246192 A 500.5953023760871 500.5953023760871 0 0 1 277.84718332554826,-7.442531856604114 L 277.1040319451015,-4.536034647635889 L 284.7528687098819,-6.192928170389714 L 278.8380518328106,-11.317861468561746 L 278.09490045236385,-8.411364259593523 A 501.5953023760871 501.5953023760871 0 0 0 175.77757866233452,-23.564978630133737"/><text text-anchor="middle" pointer-events="none" font-size="8px" fill="#000000" x="150.96584444381995" y="-20.536635108421706" transform="rotate(180 150.96584444381995 -23.536635108421706)" font-family="sans-serif">dependency</text></g><g class="relationship" transform="translate(906.3356840891199 128.77157461596443) rotate(185.22945949295644)"><path class="outline" fill="#A5ABB6" stroke="none" d="M 24.018736134675446,6.953439040707552 L 24.277555179777966,5.987513214418485 A 500.5953023760871 500.5953023760871 0 0 0 131.0979464509067,22.527979286410016 L 131.05251412909965,23.526946705365845 A 501.5953023760871 501.5953023760871 0 0 1 24.018736134675446,6.953439040707552 Z M 170.87797464120789,23.75547087011887 L 170.84400936833362,22.756047856456235 A 500.5953023760871 500.5953023760871 0 0 0 277.84718332554826,7.442531856604114 L 277.1040319451015,4.536034647635889 L 284.7528687098819,6.192928170389714 L 278.8380518328106,11.317861468561746 L 278.09490045236385,8.411364259593523 A 501.5953023760871 501.5953023760871 0 0 1 170.87797464120789,23.75547087011887"/><text text-anchor="middle" pointer-events="none" font-size="8px" fill="#000000" x="150.96584444382012" y="26.536635108421706" transform="rotate(180 150.96584444382012 23.536635108421706)" font-family="sans-serif">argument</text></g></g><g class="layer nodes"><g class="node" transform="translate(-70.72940754828565,196.73344062382904)"><circle class="outline" cx="0" cy="0" r="25" fill="#57C7E3" stroke="#23b3d7" stroke-width="2px"/><text text-anchor="middle" pointer-events="none" font-family="sans-serif" dy="1.5625" font-size="25" fill="#FFFFFF"/><text text-anchor="middle" pointer-events="none" y="5" font-size="10px" fill="#FFFFFF" font-family="sans-serif"> a</text></g><g class="node" transform="translate(-158.59682728801982,111.13476451768219)"><circle class="outline" cx="0" cy="0" r="25" fill="#57C7E3" stroke="#23b3d7" stroke-width="2px"/><text text-anchor="middle" pointer-events="none" font-family="sans-serif" dy="1.5625" font-size="25" fill="#FFFFFF"/><text text-anchor="middle" pointer-events="none" y="5" font-size="10px" fill="#FFFFFF" font-family="sans-serif"> a</text></g><g class="node" transform="translate(-292.16851920723724,71.34873164293691)"><circle class="outline" cx="0" cy="0" r="25" fill="#F16667" stroke="#eb2728" stroke-width="2px"/><text text-anchor="middle" pointer-events="none" font-family="sans-serif" dy="1.5625" font-size="25" fill="#FFFFFF"/><text text-anchor="middle" pointer-events="none" y="5" font-size="10px" fill="#FFFFFF" font-family="sans-serif"> 512</text></g><g class="node" transform="translate(44.195365343158656,217.31182572655334)"><circle class="outline" cx="0" cy="0" r="25" fill="#D9C8AE" stroke="#c0a378" stroke-width="2px"/><text text-anchor="middle" pointer-events="none" font-family="sans-serif" dy="1.5625" font-size="25" fill="#604A0E"/><text text-anchor="middle" pointer-events="none" y="5" font-size="10px" fill="#604A0E" font-family="sans-serif"> a*2</text></g><g class="node" transform="translate(111.30490837233836,117.48303079533548)"><circle class="outline" cx="0" cy="0" r="25" fill="#57C7E3" stroke="#23b3d7" stroke-width="2px"/><text text-anchor="middle" pointer-events="none" font-family="sans-serif" dy="1.5625" font-size="25" fill="#FFFFFF"/><text text-anchor="middle" pointer-events="none" y="5" font-size="10px" fill="#FFFFFF" font-family="sans-serif"> b</text></g><g class="node" transform="translate(5.654988058365375,112.2273896380877)"><circle class="outline" cx="0" cy="0" r="25" fill="#F16667" stroke="#eb2728" stroke-width="2px"/><text text-anchor="middle" pointer-events="none" font-family="sans-serif" dy="1.5625" font-size="25" fill="#FFFFFF"/><text text-anchor="middle" pointer-events="none" y="5" font-size="10px" fill="#FFFFFF" font-family="sans-serif"> 2</text></g><g class="node" transform="translate(174.4374167637618,13.138951459626833)"><circle class="outline" cx="0" cy="0" r="25" fill="#57C7E3" stroke="#23b3d7" stroke-width="2px"/><text text-anchor="middle" pointer-events="none" font-family="sans-serif" dy="1.5625" font-size="25" fill="#FFFFFF"/><text text-anchor="middle" pointer-events="none" y="5" font-size="10px" fill="#FFFFFF" font-family="sans-serif"> b</text></g><g class="node" transform="translate(294.5691483801755,27.353401839648082)"><circle class="outline" cx="0" cy="0" r="25" fill="#8DCC93" stroke="#5db665" stroke-width="2px"/><text text-anchor="middle" pointer-events="none" font-family="sans-serif" dy="1.5625" font-size="25" fill="#604A0E"/><text text-anchor="middle" pointer-events="none" y="5" font-size="10px" fill="#604A0E" font-family="sans-serif"> b/4</text></g><g class="node" transform="translate(426.92281918664116,70.13774526316222)"><circle class="outline" cx="0" cy="0" r="25" fill="#57C7E3" stroke="#23b3d7" stroke-width="2px"/><text text-anchor="middle" pointer-events="none" font-family="sans-serif" dy="1.5625" font-size="25" fill="#FFFFFF"/><text text-anchor="middle" pointer-events="none" y="5" font-size="10px" fill="#FFFFFF" font-family="sans-serif"> c</text></g><g class="node" transform="translate(255.49385258129462,131.06872962426854)"><circle class="outline" cx="0" cy="0" r="25" fill="#F16667" stroke="#eb2728" stroke-width="2px"/><text text-anchor="middle" pointer-events="none" font-family="sans-serif" dy="1.5625" font-size="25" fill="#FFFFFF"/><text text-anchor="middle" pointer-events="none" y="5" font-size="10px" fill="#FFFFFF" font-family="sans-serif"> 4</text></g><g class="node" transform="translate(598.6480566855128,100.61028692454487)"><circle class="outline" cx="0" cy="0" r="25" fill="#57C7E3" stroke="#23b3d7" stroke-width="2px"/><text text-anchor="middle" pointer-events="none" font-family="sans-serif" dy="1.5625" font-size="25" fill="#FFFFFF"/><text text-anchor="middle" pointer-events="none" y="5" font-size="10px" fill="#FFFFFF" font-family="sans-serif"> c</text></g><g class="node" transform="translate(906.3356840891199,128.77157461596443)"><circle class="outline" cx="0" cy="0" r="25" fill="#ECB5C9" stroke="#da7298" stroke-width="2px"/><text text-anchor="middle" pointer-events="none" font-family="sans-serif" dy="1.5625" font-size="25" fill="#604A0E"/><text text-anchor="middle" pointer-events="none" y="5" font-size="10px" fill="#604A0E" font-family="sans-serif"> print(c)</text></g></g></svg>